<?xml version="1.0" encoding="UTF-8"?>
<svg xmlns="http://www.w3.org/2000/svg" style="display:none">
  <symbol id="icon-clock" viewBox="0 0 24 24">
    <path d="M12 1a11 11 0 1 0 11 11A11.012 11.012 0 0 0 12 1Zm1 11H7V10h5V5h2Z"/>
  </symbol>
  <symbol id="icon-map-pin" viewBox="0 0 24 24">
    <path d="M12 2a7 7 0 0 0-7 7c0 5.25 7 13 7 13s7-7.75 7-13a7 7 0 0 0-7-7Zm0 9.5A2.5 2.5 0 1 1 14.5 9 2.5 2.5 0 0 1 12 11.5Z"/>
  </symbol>
  <symbol id="icon-calendar" viewBox="0 0 24 24">
    <path d="M7 2h2v2h6V2h2v2h3v18H4V4h3Zm13 7H4v11h16Z"/>
  </symbol>
  <symbol id="icon-trending-up" viewBox="0 0 24 24">
    <path d="M16 6h6v6l-2.59-2.59-5.83 5.83L9 11l-7 7-2-2 9-9 4.59 4.59 4.83-4.83Z"/>
  </symbol>
  <symbol id="icon-user" viewBox="0 0 24 24">
    <path d="M12 2a6 6 0 1 1-6 6 6 6 0 0 1 6-6Zm0 14c-5 0-9 2.5-9 6v2h18v-2c0-3.5-4-6-9-6Z"/>
  </symbol>
  <symbol id="icon-star" viewBox="0 0 24 24">
    <path d="M12 17.27 18.18 21 16.54 13.97 22 9.24l-7.19-.62L12 2 9.19 8.62 2 9.24l5.46 4.73L5.82 21Z"/>
  </symbol>
</svg>



